<?xml version="1.0" standalone="no"?><!DOCTYPE svg PUBLIC "-//W3C//DTD SVG 1.1//EN" "http://www.w3.org/Graphics/SVG/1.1/DTD/svg11.dtd"><svg t="1660920603364" class="icon" viewBox="0 0 1024 1024" version="1.1" xmlns="http://www.w3.org/2000/svg" p-id="5512" xmlns:xlink="http://www.w3.org/1999/xlink" width="200" height="200"><defs><style type="text/css">@font-face { font-family: feedback-iconfont; src: url("//at.alicdn.com/t/font_1031158_u69w8yhxdu.woff2?t=1630033759944") format("woff2"), url("//at.alicdn.com/t/font_1031158_u69w8yhxdu.woff?t=1630033759944") format("woff"), url("//at.alicdn.com/t/font_1031158_u69w8yhxdu.ttf?t=1630033759944") format("truetype"); }
</style></defs><path d="M801.571722 574.043941c-22.297822-37.996289-47.595352-81.092081-65.693585-155.684796-3.899619-16.198418-6.899326-30.996973-9.799043-45.295577-9.399082-46.69544-18.298213-90.791134-54.494678-139.886339-27.397324-37.196368-83.691827-76.992481-159.584416-76.992481-8.39918 0-16.398399 0.599941-24.297627 1.499853 46.195489 6.299385 78.692315 31.796895 94.690753 53.594766 38.39625 51.994922 37.996289 94.790743 55.094619 165.083879C677.8838 542.946978 752.276535 567.744556 751.776584 673.034274c-0.499951 99.490284-64.593692 165.983791-138.786446 204.879992-143.985939 75.592618-284.172249 4.999512-293.771312 0C245.126062 839.018065 180.932331 772.524558 180.53237 673.034274c0-3.899619 0.09999-7.599258 0.299971-11.298897-5.799434 19.998047-9.299092 42.095889-9.099112 68.093351 0.499951 106.489601 60.094131 196.280832 167.983596 252.875305 11.398887 5.999414 82.591934 41.295967 176.982716 41.295967 51.09501 0 108.989357-10.298994 167.883605-41.295967 107.789474-56.694463 167.483644-146.485695 167.983596-252.875305 0.09999-68.693292-24.697588-110.989161-50.99502-155.784787z" fill="#FFAB00" p-id="5513"></path><path d="M319.318817 877.914266c9.599063 4.999512 149.785373 75.592618 293.771311 0 74.192755-38.996192 138.286495-105.389708 138.786447-204.879992 0.499951-105.289718-73.892784-130.087296-114.288839-296.571038-17.09833-70.293135-16.698369-113.088956-55.09462-165.083879-15.998438-21.797871-48.595254-47.295381-94.690753-53.594766-63.59379 7.299287-110.889171 42.39586-135.286788 75.492628-36.196465 49.095206-45.095596 93.190899-54.494679 139.886339-2.899717 14.298604-5.899424 29.097158-9.799043 45.295577C270.023631 492.95186 244.826091 536.047652 222.428278 574.043941c-16.398399 27.897276-32.196856 54.794649-41.695928 87.691436-0.19998 3.699639-0.299971 7.399277-0.29997 11.298897 0.499951 99.490284 64.693682 165.983791 138.886437 204.879992z" fill="#FFC400" p-id="5514"></path><path d="M581.193243 669.334635m-31.696905 0a31.696905 31.696905 0 1 0 63.393809 0 31.696905 31.696905 0 1 0-63.393809 0Z" fill="#FF9100" p-id="5515"></path><path d="M681.683429 669.334635m-31.696904 0a31.696905 31.696905 0 1 0 63.393809 0 31.696905 31.696905 0 1 0-63.393809 0Z" fill="#FF9100" p-id="5516"></path><path d="M631.488331 754.026365m-31.696904 0a31.696905 31.696905 0 1 0 63.393809 0 31.696905 31.696905 0 1 0-63.393809 0Z" fill="#FF9100" p-id="5517"></path><path d="M530.998145 197.280734l-35.096573-1.099892c4.799531-58.594278 25.997461-111.989064 62.793868-158.784494 10.298994-12.998731 21.797871-25.5975 34.396641-37.396348l26.297432 18.298213c-11.398887 10.798945-21.897862 22.197832-31.196954 33.99668-33.496729 42.59584-52.694854 91.391075-57.194414 144.985841z" fill="#795548" p-id="5518"></path><path d="M368.395486 173.789393a147.085636 79.192266 36.001 1 0 93.098329-128.134154 147.085636 79.192266 36.001 1 0-93.098329 128.134154Z" fill="#4CAF50" p-id="5519"></path></svg>