<?xml version="1.0" standalone="no"?><!DOCTYPE svg PUBLIC "-//W3C//DTD SVG 1.1//EN" "http://www.w3.org/Graphics/SVG/1.1/DTD/svg11.dtd"><svg t="1662727696423" class="icon" viewBox="0 0 1024 1024" version="1.1" xmlns="http://www.w3.org/2000/svg" p-id="2901" xmlns:xlink="http://www.w3.org/1999/xlink" width="200" height="200"><path d="M511.73 794.94c-1.09 1.45-1.81 2.9-2.9 4.35-1.09 1.81-2.18 3.63-3.63 5.44-18.87 27.57-49.34 61.31-95.78 81.99-93.6 41.72-213.32 13.06-298.94-73.65a697.136 697.136 0 0 1 111.38-52.6c17.41 13.79 36.64 25.76 58.05 34.83 58.05 25.03 115.01 23.58 156.36 15.6 30.11-5.08 52.24-13.79 62.04-17.78 1.09 0.73 2.18 1.45 3.63 2.18l9.79-0.36z" fill="#69BD50" p-id="2902"></path><path d="M318.71 928.11c-78.65 0-160.85-34.86-224.33-99.15-4.9-4.99-7.25-11.93-6.32-18.87 0.91-6.94 4.97-13.03 11-16.57 36.61-21.43 75.29-39.68 114.97-54.26 11.69-4.37 24.74 1.68 29.05 13.39 4.31 11.71-1.7 24.74-13.41 29.03-27.59 10.16-54.68 22.22-80.84 35.97 75.93 63.32 173.76 82.98 251.37 48.38 44.89-20.15 73.52-54.08 89.63-79.05 6.76-10.43 20.83-13.56 31.26-6.72 10.52 6.76 13.52 20.77 6.74 31.28-19.42 30.05-54.1 71.09-109.16 95.79-31.34 14.02-65.32 20.78-99.96 20.78z" fill="#000000" p-id="2903"></path><path d="M915.52 839.2c-85.62 86.7-205.34 115.37-298.94 73.65-62.76-27.94-96.5-79.81-111.38-108.11-1.81-3.27-3.63-6.17-4.72-8.71 0.36-0.36 1.09-0.73 1.45-0.73l9.8-0.36c-1.09 1.45-1.81 2.9-2.9 4.35 6.53 3.99 14.51 8.35 24.67 12.7 35.19 16.32 91.06 33.01 156.73 21.77 2.54-0.73 5.08-0.73 7.62-1.81 0.36 0 0.36 0 0.73-0.36 41-8.34 74.73-26.12 101.58-46.44 50.06 18.13 89.23 38.81 115.36 54.05z" fill="#69BD50" p-id="2904"></path><path d="M707.34 954.18c-34.66 0-68.64-6.76-100.03-20.72-72.26-32.25-110.62-93.72-127.05-127.47-5.1-10.47-1.39-23.15 8.57-29.21 46.88-28.59 98.4-45.16 148.97-47.9 61.33-3.45 108.87 13.34 163.95 32.7 43.37 15.24 85.45 34.82 125.22 58.1 6.03 3.53 10.07 9.68 10.98 16.57 0.91 6.94-1.41 13.87-6.32 18.87-63.42 64.25-145.62 99.06-224.29 99.06z m-176.28-149.3c17.03 28.5 46.99 65.97 94.67 87.22 77.76 34.6 175.59 14.93 251.45-48.34a671.374 671.374 0 0 0-90.36-39.46c-54.74-19.26-94.11-33.36-146.54-30.27-36.62 2-74 12.6-109.22 30.85z" fill="#000000" p-id="2905"></path><path d="M511.73 794.94c-1.09 1.45-1.81 2.9-2.9 4.35-2.54-1.45-5.08-2.54-6.89-3.99l9.79-0.36z" p-id="2906"></path><path d="M884.39 684.95c-7.98 16.69-64.21 121.54-185.75 146.57-0.36 0.36-0.73 0.36-0.73 0.36-2.54 1.09-5.08 1.09-7.62 1.81-65.66 11.25-121.9-5.44-156.73-21.77-17.05-7.25-29.02-14.87-35.19-18.86-9.79 3.99-31.93 12.7-62.04 17.78-41.72 7.98-98.32 9.43-156.36-15.6C159.9 743.72 103.3 608.77 114.91 503.92c9.8-85.25 65.66-156 78-171.6 6.53-8.34 21.77-26.85 46.44-48.98 99.41-88.52 268.46-163.62 325.42-188.29 11.97 4.71 30.11 11.97 51.88 23.22 71.11 35.92 182.84 109.56 245.61 244.88 25.03 54.43 88.88 192.29 22.13 321.8z" fill="#F47CA2" p-id="2907"></path><path d="M884.46 685.07c-7.62 15.96-59.13 112.1-169.42 142.58 64.21-85.98 102.31-192.64 102.31-308.37 0-154.55-67.48-292.77-174.5-386.73 70.02 39.54 163.98 111.01 219.49 230.73 25.02 54.42 88.88 192.28 22.12 321.79z" fill="#F47CA2" p-id="2908"></path><path d="M884.46 685.07c-7.62 15.96-59.13 112.1-169.42 142.58 64.21-85.98 102.31-192.64 102.31-308.37 0-154.55-67.48-292.77-174.5-386.73 70.02 39.54 163.98 111.01 219.49 230.73 25.02 54.42 88.88 192.28 22.12 321.79z" fill="#EC596B" p-id="2909"></path><path d="M647.25 859.67c-55.69 0-99.28-16.04-123.28-27.31a237.7 237.7 0 0 1-27.92-14.09c-12.19 4.46-31.84 10.83-55.94 14.89-40.63 7.69-103.44 11.13-169.07-17.14C138.7 759.24 80.25 611.58 92.42 501.47c6.83-59.38 36.21-124.38 82.76-183.19 9.19-11.75 25.25-30.4 49.07-51.78 69.61-61.99 184.25-128.44 331.54-192.2 5.5-2.39 11.71-2.47 17.3-0.27 12.46 4.9 31.33 12.46 53.97 24.17 81.63 41.18 192.45 119.03 255.72 255.48 25.67 55.72 93.27 202.5 21.87 341.37-7.09 14.67-66.43 129.59-199.1 158.14-3.49 1.37-6.56 1.9-8.48 2.21-17.46 2.99-34.14 4.27-49.82 4.27z m-148.86-89.21c4.29 0 8.55 1.24 12.26 3.62 4.77 3.05 15.95 10.25 31.77 17.01 26.71 12.5 79.91 31.37 144.06 20.28 1.46-0.62 3.58-1.15 5.74-1.55 0.6-0.18 1.22-0.35 1.83-0.44 115.92-23.9 167.77-129.68 169.91-134.19l0.31-0.62c61.53-119.34 2.72-246.99-22.38-301.52-57.97-125-160.01-196.53-235.44-234.58-16.33-8.44-30.44-14.49-41.31-18.91-138.75 60.69-246.07 123.07-310.74 180.65-21.3 19.13-35.5 35.61-43.65 46.04-41.47 52.4-67.49 109.27-73.37 160.3C127 600.4 176.57 726.28 288.91 774.44c55.16 23.82 108.36 20.86 143.2 14.18 29.25-4.95 49.97-13.34 57.77-16.48 2.74-1.15 5.64-1.68 8.51-1.68z" fill="#000000" p-id="2910"></path><path d="M324.08 381.02c-6.23 0-12.44-2.56-16.9-7.6-8.31-9.32-7.47-23.59 1.86-31.9 34.66-30.89 80.64-62.96 136.62-95.44 10.87-6.27 24.68-2.56 30.93 8.22 6.27 10.83 2.58 24.66-8.22 30.93-53.38 30.93-96.85 61.24-129.24 90.05a22.545 22.545 0 0 1-15.05 5.74z" fill="#FFFFFF" p-id="2911"></path><path d="M579.95 233.05c-12.31 0-22.38-9.85-22.62-22.18-0.35-19.35-1.88-39.37-4.51-59.56-2.76-18.03-5.88-35.17-9.72-50.9-2.96-12.11 4.48-24.35 16.61-27.31 12.24-3.05 24.39 4.46 27.35 16.61 4.11 16.88 7.53 35.35 10.54 55.27 2.92 22.27 4.57 44.01 4.97 65 0.22 12.5-9.7 22.84-22.2 23.06-0.13 0.01-0.28 0.01-0.42 0.01z" fill="#000000" p-id="2912"></path></svg>